<?xml version="1.0" standalone="no"?>
<!DOCTYPE svg PUBLIC "-//W3C//DTD SVG 20010904//EN"
 "http://www.w3.org/TR/2001/REC-SVG-20010904/DTD/svg10.dtd">
<svg version="1.0" xmlns="http://www.w3.org/2000/svg"
 width="984.000000pt" height="984.000000pt" viewBox="0 0 984.000000 984.000000"
 preserveAspectRatio="xMidYMid meet">
<metadata>
Created by potrace 1.14, written by Peter Selinger 2001-2017
</metadata>
<g transform="translate(0.000000,984.000000) scale(0.100000,-0.100000)"
fill="#000000" stroke="none">
<path d="M6407 9020 c-22 -11 -50 -32 -64 -47 -54 -57 -54 -61 -51 -516 1
-255 6 -436 12 -457 15 -49 82 -116 131 -129 111 -29 224 33 252 139 5 19 8
220 6 453 -3 412 -3 419 -25 464 -34 67 -95 107 -166 110 -38 1 -70 -5 -95
-17z"/>
<path d="M4200 8213 c-43 -14 -116 -68 -120 -88 0 -3 -7 -19 -14 -36 -17 -41
-12 -121 11 -160 10 -17 116 -129 236 -248 121 -119 249 -247 285 -284 94 -96
132 -118 202 -119 85 -2 150 37 186 112 22 44 29 135 13 146 -5 3 -9 13 -9 23
0 24 -606 622 -653 644 -36 16 -104 21 -137 10z"/>
<path d="M8635 8130 c-16 -4 -43 -14 -60 -23 -34 -18 -604 -578 -629 -618 -25
-40 -40 -122 -25 -144 3 -5 9 -21 13 -35 12 -48 77 -104 136 -116 36 -8 80
-11 85 -6 3 3 15 7 27 9 32 5 77 46 380 346 185 183 283 287 293 312 10 21 15
60 14 92 -2 48 -8 63 -41 104 -53 67 -121 95 -193 79z"/>
<path d="M6060 7339 c-93 -11 -132 -19 -215 -39 -44 -11 -89 -22 -99 -25 -27
-6 -157 -56 -181 -69 -11 -5 -22 -11 -25 -11 -13 -2 -91 -43 -148 -77 -34 -21
-65 -38 -68 -38 -2 0 -10 -5 -17 -10 -7 -6 -30 -24 -52 -40 -93 -70 -115 -90
-214 -189 -73 -74 -107 -102 -116 -95 -46 34 -180 118 -181 114 -1 -3 -10 2
-20 11 -64 57 -474 221 -609 244 -11 2 -45 8 -75 15 -30 6 -73 13 -95 16 -22
2 -49 6 -60 9 -56 12 -167 19 -325 19 -159 0 -229 -4 -330 -20 -19 -2 -51 -7
-70 -9 -99 -12 -330 -76 -465 -128 -103 -40 -262 -118 -331 -162 -30 -19 -59
-35 -64 -35 -6 0 -10 -4 -10 -10 0 -5 -5 -10 -10 -10 -6 0 -16 -5 -23 -10 -7
-6 -54 -42 -106 -81 -117 -88 -237 -200 -321 -299 -12 -14 -31 -36 -43 -50
-171 -199 -360 -571 -422 -830 -13 -54 -19 -60 -59 -70 -89 -23 -184 -52 -251
-78 -38 -14 -72 -27 -75 -27 -3 0 -31 -13 -64 -28 -32 -15 -62 -27 -67 -27 -5
0 -9 -5 -9 -12 0 -6 -3 -9 -6 -5 -6 6 -154 -78 -214 -122 -194 -141 -347 -316
-451 -514 -49 -94 -123 -298 -135 -371 -3 -21 -8 -48 -10 -60 -15 -73 -19
-140 -18 -286 0 -91 4 -183 7 -205 15 -90 33 -180 37 -180 1 0 3 -9 5 -20 5
-26 13 -59 15 -62 2 -2 3 -6 4 -10 10 -46 47 -137 117 -288 5 -11 18 -33 29
-50 11 -16 23 -37 27 -45 9 -22 84 -129 113 -164 77 -92 129 -145 224 -230 40
-35 96 -54 155 -51 153 6 251 148 202 293 -15 42 -37 70 -115 148 -53 53 -111
117 -128 142 -18 26 -35 49 -40 50 -4 2 -8 7 -8 12 0 4 -18 38 -40 74 -22 36
-40 69 -40 74 0 5 -9 26 -19 48 -37 76 -62 165 -86 299 -13 76 -14 295 -1 355
2 14 7 42 10 63 4 21 11 47 16 58 6 10 8 19 5 19 -3 0 1 13 10 29 8 17 16 38
18 48 2 10 15 43 31 73 101 205 258 362 466 467 30 15 57 31 58 36 2 4 11 7
21 7 9 0 22 5 29 12 7 7 12 8 12 4 0 -5 6 -4 13 1 20 16 224 80 307 97 14 3
34 7 45 9 11 2 66 13 122 23 l101 18 7 40 c4 23 9 50 11 61 2 11 7 36 11 55 4
19 8 40 8 45 8 51 72 259 106 341 66 159 211 402 271 455 10 9 18 20 18 24 0
5 46 54 103 109 89 87 254 216 322 252 11 6 47 25 80 43 146 79 403 170 525
185 19 3 35 5 35 6 0 1 11 3 25 5 14 1 52 6 85 11 76 11 370 11 453 1 430 -53
802 -233 1107 -533 53 -52 175 -201 175 -213 0 -6 4 -11 8 -11 4 0 16 -15 27
-32 10 -18 21 -35 24 -38 3 -3 17 -24 30 -48 22 -42 22 -44 5 -57 -11 -8 -23
-15 -27 -15 -11 0 -225 -107 -262 -131 -16 -10 -37 -22 -45 -26 -77 -36 -380
-273 -380 -297 0 -6 20 -32 43 -57 23 -26 67 -75 97 -110 30 -34 67 -77 82
-93 15 -17 36 -41 46 -53 l19 -23 99 76 c91 70 195 144 236 169 163 98 245
137 368 178 132 44 158 50 295 72 77 12 299 12 360 0 17 -3 42 -8 57 -11 15
-3 29 -5 30 -5 9 4 182 -60 228 -84 132 -66 318 -220 375 -310 11 -16 25 -34
32 -38 7 -4 13 -14 13 -22 0 -7 4 -15 8 -17 12 -5 70 -104 98 -167 33 -73 72
-184 85 -241 6 -25 13 -53 15 -62 8 -36 12 -54 18 -103 4 -27 10 -66 13 -85 9
-54 10 -274 2 -349 -27 -254 -90 -444 -204 -620 -61 -94 -74 -145 -56 -217 22
-87 75 -141 161 -164 74 -20 162 4 212 58 33 35 98 129 98 141 0 5 3 11 8 13
11 5 72 124 72 141 0 9 5 17 10 19 6 2 12 12 14 23 2 11 13 43 24 71 21 53 72
233 77 268 2 21 14 94 21 131 2 11 7 52 10 90 3 39 8 73 11 78 2 4 -1 7 -8 7
-8 0 -8 4 -2 13 6 7 9 67 7 142 -4 157 -9 208 -32 352 -5 29 -5 54 -1 55 4 2
30 32 58 68 28 36 55 70 61 77 5 7 10 17 10 23 0 5 5 10 10 10 6 0 10 7 10 15
0 8 3 15 8 15 4 0 13 15 21 33 8 17 17 34 21 37 6 4 82 156 85 170 1 3 7 19
14 35 7 17 14 35 15 40 1 6 4 15 8 20 8 13 55 188 63 235 24 141 31 215 29
340 -1 108 -7 181 -19 240 -3 14 -8 41 -11 60 -12 77 -51 208 -94 315 -129
318 -392 622 -693 799 -126 74 -304 150 -402 173 -31 7 -38 9 -60 16 -11 4
-34 9 -50 11 -17 3 -41 7 -55 10 -100 20 -356 28 -460 15z m360 -454 c6 -4 23
-9 38 -11 45 -7 77 -12 77 -14 0 -1 8 -3 17 -5 24 -4 91 -26 103 -34 6 -3 15
-6 20 -7 30 -5 217 -102 223 -116 2 -5 10 -8 18 -8 8 0 14 -4 14 -8 0 -4 15
-16 33 -27 54 -31 230 -215 282 -295 27 -41 47 -77 46 -79 -1 -2 1 -7 6 -10
14 -10 63 -118 93 -208 64 -186 81 -460 40 -623 -5 -19 -12 -50 -15 -68 -3
-17 -15 -58 -27 -90 -12 -31 -21 -60 -20 -64 1 -5 -2 -8 -8 -8 -5 0 -10 -7
-10 -15 0 -20 -38 -95 -48 -95 -7 0 -13 10 -42 66 -8 16 -17 31 -20 34 -3 3
-25 34 -49 69 -79 115 -197 245 -288 316 -14 11 -35 29 -47 40 -12 11 -33 26
-48 34 -15 8 -37 23 -48 33 -11 10 -20 15 -20 11 0 -4 -4 -3 -8 3 -19 30 -262
140 -377 171 -43 11 -104 25 -125 28 -14 2 -36 7 -50 10 -107 24 -410 24 -518
1 -24 -5 -20 -10 -92 114 -44 76 -159 247 -183 272 -7 7 -28 33 -47 58 -19 25
-41 50 -48 55 -7 6 -10 17 -7 26 9 23 184 189 235 224 25 16 47 33 50 36 20
22 280 146 280 133 0 -2 9 0 21 6 11 6 30 13 42 16 95 20 128 26 172 31 28 3
51 6 53 7 6 6 272 -3 282 -9z"/>
<path d="M8947 5943 c-1 -1 -33 -3 -72 -4 -136 -5 -216 -83 -211 -206 3 -76
26 -115 92 -161 52 -36 26 -35 549 -30 416 4 420 5 478 66 101 105 51 293 -87
329 -18 5 -745 11 -749 6z"/>
<path d="M8245 4753 c-77 -18 -145 -102 -153 -188 -7 -79 12 -103 330 -417
165 -164 305 -298 309 -298 5 0 9 -4 9 -8 0 -5 18 -14 40 -21 131 -39 255 44
265 178 6 80 -19 116 -193 289 -382 377 -451 442 -478 453 -33 12 -99 18 -129
12z"/>
<path d="M2134 3221 c-2 -2 -40 -3 -85 -2 -127 3 -163 -15 -211 -104 -37 -68
-31 -211 10 -257 8 -10 11 -18 7 -18 -14 0 48 -51 75 -61 16 -7 727 -11 2087
-10 2286 0 2094 -6 2148 65 91 120 48 342 -73 376 -24 6 -427 10 -1177 9 -627
0 -1148 0 -1157 0 -10 0 -119 0 -243 0 -124 0 -232 0 -240 0 -33 0 -196 0
-207 0 -7 -1 -67 -1 -133 0 -66 0 -128 0 -137 0 -46 -1 -475 0 -493 0 -85 5
-167 5 -171 2z"/>
<path d="M1249 2268 c-89 -8 -126 -30 -170 -98 -27 -42 -45 -155 -27 -166 5
-3 6 -10 3 -15 -12 -18 48 -108 89 -136 l41 -28 1656 -2 c1210 -2 1665 0 1688
8 46 16 106 81 124 132 18 53 15 129 -7 182 -20 48 -75 100 -121 115 -38 13
-3155 20 -3276 8z"/>
<path d="M5484 2269 c-48 -3 -82 -12 -106 -27 -146 -90 -137 -328 15 -401 40
-19 62 -20 437 -21 278 0 406 3 430 11 29 10 134 99 116 99 -3 0 2 16 10 35
45 108 -10 247 -114 291 -31 12 -96 15 -377 17 -187 1 -372 0 -411 -4z"/>
<path d="M2253 1248 c-45 -12 -110 -76 -128 -128 -43 -118 1 -241 105 -296 32
-16 65 -18 355 -19 176 0 334 4 352 9 47 13 95 57 123 112 46 89 26 207 -47
276 -54 52 -81 55 -418 55 -171 0 -324 -4 -342 -9z"/>
<path d="M3781 1248 c-157 -27 -223 -240 -115 -367 62 -72 74 -75 361 -76 139
-1 255 -4 259 -7 3 -4 18 -3 34 2 18 5 32 4 39 -3 6 -6 11 -7 11 -1 0 7 140
11 160 4 6 -3 77 0 110 3 14 2 35 0 47 -5 12 -4 25 -3 28 2 3 5 16 6 28 2 12
-4 470 -7 1017 -7 l995 0 43 30 c131 93 119 319 -21 392 -41 21 -74 24 -212
22 -9 0 -1459 8 -2395 14 -190 2 -365 -1 -389 -5z"/>
</g>
</svg>
